dummy_motion.mot																				
nRows=26																				
nColumns=21																				
name dummy_motion.mot																				
datacolumns 21																				
datarows 26																				
range 25.01 25.26																				
endheader																				
time	pelvis_tilt	pelvis_tx	pelvis_ty	hip_flexion_r	hip_adduction_r	hip_rotation_r	knee_angle_r	ankle_angle_r	hip_flexion_l	hip_adduction_l	hip_rotation_l	knee_angle_l	ankle_angle_l	lumbar_extension	lumbar_bending	lumbar_rotation	subtalar_angle_r	subtalar_angle_l	mtp_angle_r	mtp_angle_l
25.01	0	0	0	79.98464701	0.465079635	15.89155188	-26.27427465	-35.16693953	79.98464701	0.465079635	15.89155188	-26.27427465	-35.16693953	-2.245027771	0.697619454	23.83732786	32.01947022	32.01947022	14.69675674	14.69675674
25.02	0	0	0	44.39304725	-6.344563699	-0.883278092	-40.25875575	26.57659588	44.39304725	-6.344563699	-0.883278092	-40.25875575	26.57659588	6.378447819	-9.516845568	-1.324917141	15.37173981	15.37173981	18.01066881	18.01066881
25.03	0	0	0	-22.44362776	-7.03113482	-25.89165026	-61.61253604	5.826323766	-22.44362776	-7.03113482	-25.89165026	-61.61253604	5.826323766	-54.80957648	-10.54670225	-38.83747547	2.123284024	2.123284024	31.85460233	31.85460233
25.04	0	0	0	53.00796253	23.0057722	1.072082856	-23.12293753	21.97150897	53.00796253	23.0057722	1.072082856	-23.12293753	21.97150897	74.55361823	34.50865838	1.608124288	-18.10661309	-18.10661309	53.80625497	53.80625497
25.05	0	0	0	-63.02750389	13.82345881	-5.630072224	-53.74696678	-10.89913778	-63.02750389	13.82345881	-5.630072224	-53.74696678	-10.89913778	-39.10081592	20.73518825	-8.445108353	18.35721708	18.35721708	-0.690908661	-0.690908661
25.06	0	0	0	-15.80987605	15.97492922	4.902274262	-36.06992521	-3.784286041	-15.80987605	15.97492922	4.902274262	-36.06992521	-3.784286041	81.18871306	23.96239388	7.353411408	-10.65502116	-10.65502116	-7.048280782	-7.048280782
25.07	0	0	0	18.70281993	-0.655897712	27.98198533	-5.653209245	-13.57474451	18.70281993	-0.655897712	27.98198533	-5.653209245	-13.57474451	32.97029927	-0.98384657	41.97297809	6.091649802	6.091649802	18.07272727	18.07272727
25.08	0	0	0	26.60887418	-5.532312065	27.75319889	-9.919817545	15.94648211	26.60887418	-5.532312065	27.75319889	-9.919817545	15.94648211	21.22381682	-8.298468114	41.62979842	34.90748598	34.90748598	31.69953812	31.69953812
25.09	0	0	0	-15.0202638	22.45233825	29.90384453	-4.614137196	-37.33190964	-15.0202638	22.45233825	29.90384453	-4.614137196	-37.33190964	8.771730979	33.67850744	44.85576688	30.86543601	30.86543601	54.37755075	54.37755075
25.1	0	0	0	28.32965543	-15.14237653	0.811645463	-0.794706313	-5.846656862	28.32965543	-15.14237653	0.811645463	-0.794706313	-5.846656862	50.03173732	-22.71356484	1.217468197	35.89187002	35.89187002	10.56430686	10.56430686
25.11	0	0	0	21.63358244	-28.98179676	13.32024469	-12.53366019	2.619825221	21.63358244	-28.98179676	13.32024469	-12.53366019	2.619825221	-48.02524931	-43.47269523	19.98036708	39.51027823	39.51027823	28.15275397	28.15275397
25.12	0	0	0	-56.74087201	-24.15324554	-21.24992599	-89.87100627	-9.684864514	-56.74087201	-24.15324554	-21.24992599	-89.87100627	-9.684864514	-69.01628457	-36.22986839	-31.87488905	28.38916403	28.38916403	44.71772448	44.71772448
25.13	0	0	0	54.23324489	18.50429701	-18.78943172	-89.70638373	21.13546867	54.23324489	18.50429701	-18.78943172	-89.70638373	21.13546867	-26.38293044	27.75644557	-28.18414764	-44.87779541	-44.87779541	12.91796792	12.91796792
25.14	0	0	0	79.87171665	28.89490858	-15.73773057	-81.69046245	-26.58113869	79.87171665	28.89490858	-15.73773057	-81.69046245	-26.58113869	-72.06838822	43.34236296	-23.6065959	-44.72183722	-44.72183722	-3.331606214	-3.331606214
25.15	0	0	0	67.50352302	-0.272627225	25.17748701	-65.23090164	-10.58608638	67.50352302	-0.272627225	25.17748701	-65.23090164	-10.58608638	-21.44934984	-0.408940839	37.7662306	-37.12780653	-37.12780653	20.91778286	20.91778286
25.16	0	0	0	23.69145013	-4.22992955	-25.10037879	-87.83412629	32.65738298	23.69145013	-4.22992955	-25.10037879	-87.83412629	32.65738298	86.03874346	-6.344894339	-37.65056827	-21.53453839	-21.53453839	-7.964622616	-7.964622616
25.17	0	0	0	62.76388307	11.76601924	11.75486728	-49.71194221	12.24546439	62.76388307	11.76601924	11.75486728	-49.71194221	12.24546439	20.53999389	17.64902889	17.63230096	-42.94811964	-42.94811964	37.27732667	37.27732667
25.18	0	0	0	-66.79028761	-16.88997288	-18.67900541	-57.59882795	-14.47773647	-66.79028761	-16.88997288	-18.67900541	-57.59882795	-14.47773647	13.66604899	-25.33495937	-28.01850817	-6.832366307	-6.832366307	-2.188673863	-2.188673863
25.19	0	0	0	4.084266837	-25.4244098	19.02421574	-38.57137634	28.94851697	4.084266837	-25.4244098	19.02421574	-38.57137634	28.94851697	-9.051747675	-38.13661477	28.53632367	-14.3041528	-14.3041528	3.974819662	3.974819662
25.2	0	0	0	74.639816	-2.358768328	-10.53713385	-2.013937155	-28.26319531	74.639816	-2.358768328	-10.53713385	-2.013937155	-28.26319531	-9.76066567	-3.538152499	-15.80570081	3.721853998	3.721853998	27.1113077	27.1113077
25.21	0	0	0	70.69200917	-6.949129829	18.02410576	-61.64255253	22.71506127	70.69200917	-6.949129829	18.02410576	-61.64255253	22.71506127	-16.66038711	-10.42369476	27.0361587	38.35521743	38.35521743	33.91497931	33.91497931
25.22	0	0	0	11.99376012	-15.54168803	18.95630661	-57.88194458	-19.19554235	11.99376012	-15.54168803	18.95630661	-57.88194458	-19.19554235	71.74552343	-23.31253209	28.43445998	-18.13504976	-18.13504976	16.15176426	16.15176426
25.23	0	0	0	39.03829185	15.62658276	-10.97732917	-8.349389815	10.21889538	39.03829185	15.62658276	-10.97732917	-8.349389815	10.21889538	-15.05852117	23.43987419	-16.46599379	-14.57236855	-14.57236855	32.45175438	32.45175438
25.24	0	0	0	-2.587444693	27.90316235	-17.80307931	-57.65456048	-27.82016532	-2.587444693	27.90316235	-17.80307931	-57.65456048	-27.82016532	32.42804673	41.85474361	-26.70461902	32.35320965	32.35320965	49.24720792	49.24720792
25.25	0	0	0	-15.15117506	-24.30449772	-20.31125427	-76.87856171	-4.320546081	-15.15117506	-24.30449772	-20.31125427	-76.87856171	-4.320546081	-83.52794088	-36.45674666	-30.46688146	-14.35695203	-14.35695203	39.13619824	39.13619824
25.26	0	0	0	24.61275883	16.78842861	24.68172689	-41.75909924	16.27563516	24.61275883	16.78842861	24.68172689	-41.75909924	16.27563516	-57.94717135	25.18264297	37.02259041	-32.56916373	-32.56916373	17.50117401	17.50117401
